<svg xmlns="http://www.w3.org/2000/svg" xmlns:xlink="http://www.w3.org/1999/xlink" width="160" height="160" viewBox="0 0 160 160"><defs><clipPath id="b"><rect width="160" height="160"/></clipPath></defs><g id="a" clip-path="url(#b)"><g transform="translate(1 20)"><g transform="translate(116.294 5.288)"><path d="M437.265,178.3s1.6.8,2.78,1.31,6.2,2.364,4.345,8.978c0,0-7.54-.671-7.125-10.288" transform="translate(-413.846 -127.422)" fill="#e5b239"/><path d="M463.2,187.835s1.63-.863,2.844-1.47c1.214-.575,6.326-2.716,4.888-9.265,0,0-7.572,1.054-7.732,10.735" transform="translate(-431.507 -126.605)" fill="#e5b239"/><path d="M432.5,152.9s1.725.447,3.035.7c1.278.256,6.645,1.054,6.166,7.827,0,0-7.6.895-9.2-8.53" transform="translate(-410.615 -110.137)" fill="#e5b239"/><path d="M426.5,121.9s1.821.639,3.131,1.054c1.342.415,6.869,1.821,6.677,7.923,0-.032-7.764-.224-9.808-8.978" transform="translate(-406.532 -89.041)" fill="#e5b239"/><path d="M415.2,93.5s1.853.511,3.227.831,7,1.342,7.38,7.412c0,0-7.732.351-10.607-8.243" transform="translate(-398.842 -69.714)" fill="#e5b239"/><path d="M396.6,72.562s1.917.032,3.323,0,7.093-.447,9.137,5.367c0,0-7.348,2.268-12.46-5.367" transform="translate(-386.185 -55.454)" fill="#e5b239"/><path d="M375,48.388s1.917-.1,3.291-.224,7.029-.927,9.489,4.728c0,.032-7.157,2.78-12.78-4.5" transform="translate(-371.486 -38.788)" fill="#e5b239"/><path d="M463.847,155.867s1.6-.895,2.78-1.534c1.182-.607,6.23-2.843,4.281-9.233.032,0-7.572,1.246-7.061,10.767" transform="translate(-431.931 -104.829)" fill="#e5b239"/><path d="M459.172,124.931s1.214-1.086,2.141-1.821,4.92-3.546,1.725-9.01c0,.032-6.486,2.332-3.866,10.831" transform="translate(-428.342 -83.733)" fill="#e5b239"/><path d="M448.757,90.129s1.022-1.278,1.853-2.173c.8-.895,4.313-4.377.352-9.457,0,0-6.07,3.355-2.2,11.629" transform="translate(-420.802 -59.507)" fill="#e5b239"/><path d="M434.129,62.985s.735-1.47,1.278-2.524c.575-1.054,3.195-5.208-1.821-9.361,0,0-5.112,4.569.543,11.885" transform="translate(-409.912 -40.861)" fill="#e5b239"/><path d="M412.26,36.529s.352-1.6.671-2.748,1.917-5.751-3.9-8.882c0,.032-3.9,5.527,3.227,11.629" transform="translate(-393.922 -23.031)" fill="#e5b239"/><path d="M364,19.1s.927,1.534,1.565,2.684,2.907,5.974,9.84,3.962c0-.032-1.15-7.348-11.406-6.645" transform="translate(-364 -19.051)" fill="#e5b239"/></g><g transform="translate(0.961 5.288)"><path d="M37.859,178.3s-1.6.8-2.78,1.31-6.2,2.364-4.345,8.978c0,0,7.54-.671,7.125-10.288" transform="translate(-21.6 -127.422)" fill="#e5b239"/><path d="M10.993,187.835s-1.629-.863-2.843-1.47c-1.214-.575-6.326-2.716-4.888-9.265,0,0,7.572,1.054,7.732,10.735" transform="translate(-3.009 -126.605)" fill="#e5b239"/><path d="M39.037,152.9s-1.725.447-3.035.7c-1.278.256-6.645,1.054-6.166,7.827.032,0,7.6.895,9.2-8.53" transform="translate(-21.244 -110.137)" fill="#e5b239"/><path d="M43.8,121.9s-1.821.639-3.131,1.054c-1.342.415-6.869,1.821-6.677,7.923,0-.032,7.764-.224,9.808-8.978" transform="translate(-24.088 -89.041)" fill="#e5b239"/><path d="M53.407,93.5s-1.853.511-3.227.831-7,1.342-7.38,7.412c0,0,7.764.351,10.607-8.243" transform="translate(-30.087 -69.714)" fill="#e5b239"/><path d="M68.06,72.562s-1.917.032-3.323,0-7.093-.447-9.137,5.367c0,0,7.348,2.268,12.46-5.367" transform="translate(-38.798 -55.454)" fill="#e5b239"/><path d="M88.98,48.388s-1.917-.1-3.291-.224-7.029-.927-9.489,4.728c0,.032,7.157,2.78,12.78-4.5" transform="translate(-52.816 -38.788)" fill="#e5b239"/><path d="M11.318,155.867s-1.6-.895-2.78-1.534c-1.182-.607-6.23-2.843-4.281-9.233-.032,0,7.572,1.246,7.061,10.767" transform="translate(-3.557 -104.829)" fill="#e5b239"/><path d="M19.871,124.931s-1.214-1.086-2.141-1.821-4.92-3.546-1.725-9.01c0,.032,6.486,2.332,3.866,10.831" transform="translate(-11.024 -83.733)" fill="#e5b239"/><path d="M31.065,90.129s-1.022-1.278-1.853-2.173c-.8-.895-4.313-4.377-.351-9.457.032,0,6.07,3.355,2.2,11.629" transform="translate(-19.343 -59.507)" fill="#e5b239"/><path d="M46.13,62.985s-.735-1.47-1.278-2.524c-.575-1.054-3.195-5.208,1.821-9.361,0,0,5.112,4.569-.543,11.885" transform="translate(-30.669 -40.861)" fill="#e5b239"/><path d="M67.431,36.529s-.351-1.6-.671-2.748-1.917-5.751,3.9-8.882c0,.032,3.9,5.527-3.227,11.629" transform="translate(-46.092 -23.031)" fill="#e5b239"/><path d="M102.906,19.1s-.927,1.534-1.566,2.684-2.907,5.974-9.84,3.962c0-.032,1.15-7.348,11.406-6.645" transform="translate(-63.228 -19.051)" fill="#e5b239"/></g><path d="M157.764,242.626H0l6.933-13.163L0,216.3H157.764l-6.9,13.163Z" transform="translate(0 -147.993)" fill="#1a6358"/><g transform="translate(15.08 84.153)" opacity="0.63"><path d="M159.756,276.283H61.96L47.2,265.9H174.516Z" transform="translate(-47.2 -265.9)" fill="#2a1e3b"/></g><g transform="translate(18.754 0)"><path d="M120.337,123.439a59.169,59.169,0,1,1,59.137-59.169A59.217,59.217,0,0,1,120.337,123.439Zm0-99.137a39.984,39.984,0,1,0,39.936,39.968A40,40,0,0,0,120.337,24.3Z" transform="translate(-60.401 -4.269)" fill="#291e3b"/><path d="M118.636,4.129a58.418,58.418,0,0,1,53.738,35.687,58.356,58.356,0,0,1-53.738,81.118A58.1,58.1,0,0,1,77.39,103.81,58.459,58.459,0,0,1,95.92,8.73a57.741,57.741,0,0,1,22.716-4.6m0,99.169A40.8,40.8,0,0,0,147.454,33.65,40.777,40.777,0,1,0,118.636,103.3m0-100.8a60,60,0,1,0,59.936,60,59.974,59.974,0,0,0-59.936-60Zm0,99.169A39.169,39.169,0,1,1,157.773,62.5a39.146,39.146,0,0,1-39.137,39.169Z" transform="translate(-58.7 -2.5)" fill="#fff"/></g><g transform="translate(28.594 7.668)"><path d="M95.187,135.324,89.5,133.311l1.214-3.482a1.9,1.9,0,0,1,.447-.735,1.38,1.38,0,0,1,.7-.383,1.155,1.155,0,0,1,.8.064,1.6,1.6,0,0,1,.607.351,1.4,1.4,0,0,1,.319.479,1.671,1.671,0,0,1,.1.575h.032a1.6,1.6,0,0,1,.447-.479,1.4,1.4,0,0,1,.607-.224,1.686,1.686,0,0,1,.767.1,1.6,1.6,0,0,1,.735.511,1.759,1.759,0,0,1,.319.8,1.921,1.921,0,0,1-.128.927ZM92.28,132.64l.511-1.47a.664.664,0,0,0,.032-.351.642.642,0,0,0-.128-.256,1.114,1.114,0,0,0-.288-.192.622.622,0,0,0-.479,0,.643.643,0,0,0-.288.351l-.543,1.5Zm2.3.831.575-1.6a.618.618,0,0,0,0-.479.556.556,0,0,0-.415-.32.576.576,0,0,0-.32-.032,1.135,1.135,0,0,0-.288.128.543.543,0,0,0-.192.319l-.575,1.6Z" transform="translate(-89.5 -96.027)" fill="#fff"/><path d="M105.272,110.584,100,107.645l2.428-4.345,1.086.607-1.661,2.971.99.543,1.438-2.588,1.054.575L103.9,108l1.086.607,1.693-3.035,1.086.607Z" transform="translate(-96.645 -78.763)" fill="#fff"/><path d="M121.9,88.741a5.6,5.6,0,0,1-.735.767,2.652,2.652,0,0,1-.8.479,1.859,1.859,0,0,1-.831.1,1.546,1.546,0,0,1-.863-.415c-.032,0-.032-.032-.064-.064l-.064-.064.958-1.182a.112.112,0,0,0,.064.032c.032,0,.032.032.064.032a.645.645,0,0,0,.447.16.848.848,0,0,0,.447-.16,1.968,1.968,0,0,0,.447-.447,1.757,1.757,0,0,0,.224-.288,1.884,1.884,0,0,0,.128-.256.751.751,0,0,0,.064-.256.543.543,0,0,0-.032-.224.319.319,0,0,0-.128-.16.361.361,0,0,0-.351-.1,1.21,1.21,0,0,0-.415.192c-.128.1-.32.224-.479.351-.192.128-.351.288-.543.415a2.43,2.43,0,0,1-.607.383,2.23,2.23,0,0,1-.639.256,1.089,1.089,0,0,1-.639,0,1.371,1.371,0,0,1-.671-.351,1.459,1.459,0,0,1-.511-.671,1.675,1.675,0,0,1-.1-.8,2.764,2.764,0,0,1,.256-.831,3.378,3.378,0,0,1,.543-.831,4.87,4.87,0,0,1,.7-.7,3.019,3.019,0,0,1,.767-.415,1.269,1.269,0,0,1,.767-.064,2.059,2.059,0,0,1,.767.351l.1.064-.927,1.182-.032-.032a.481.481,0,0,0-.351-.128.851.851,0,0,0-.383.1,1.353,1.353,0,0,0-.415.351,1.906,1.906,0,0,0-.288.479.55.55,0,0,0-.064.383.394.394,0,0,0,.128.256.348.348,0,0,0,.351.064,1.559,1.559,0,0,0,.415-.192,4.569,4.569,0,0,0,.479-.351c.16-.128.351-.288.543-.415a5.989,5.989,0,0,1,.575-.383,2.464,2.464,0,0,1,.607-.256,1.419,1.419,0,0,1,.639-.032,1.5,1.5,0,0,1,.639.319,1.854,1.854,0,0,1,.7.99,1.712,1.712,0,0,1-.1,1.118A6.937,6.937,0,0,1,121.9,88.741Z" transform="translate(-107.712 -65.354)" fill="#fff"/><path d="M136.063,69.737,132.9,66.223l-1.438,1.31-.863-.958,4.057-3.674.863.958-1.438,1.31,3.163,3.514Z" transform="translate(-117.469 -51.271)" fill="#fff"/><path d="M168.528,49.8a3.485,3.485,0,0,1-1.661.479,2.36,2.36,0,0,1-1.438-.415,3.457,3.457,0,0,1-1.15-1.342,3.7,3.7,0,0,1-.479-1.693,2.428,2.428,0,0,1,.479-1.438,4.317,4.317,0,0,1,1.342-1.118,3.485,3.485,0,0,1,1.661-.479,2.36,2.36,0,0,1,1.438.415,3.456,3.456,0,0,1,1.15,1.342,3.717,3.717,0,0,1,.479,1.725,2.428,2.428,0,0,1-.479,1.438A3.348,3.348,0,0,1,168.528,49.8Zm-.575-1.054a1.872,1.872,0,0,0,.543-.415,1.62,1.62,0,0,0,.288-.511.984.984,0,0,0,0-.607,1.933,1.933,0,0,0-.256-.671l-.192-.351a2.054,2.054,0,0,0-.415-.575,1.251,1.251,0,0,0-.511-.319,1.189,1.189,0,0,0-.575-.064,1.918,1.918,0,0,0-.639.224,1.872,1.872,0,0,0-.543.415,1.107,1.107,0,0,0-.256.511,1.831,1.831,0,0,0,.256,1.278l.192.351a2.658,2.658,0,0,0,.415.575,1.826,1.826,0,0,0,.511.351,1.189,1.189,0,0,0,.575.064A3.11,3.11,0,0,0,167.953,48.743Z" transform="translate(-140.062 -38.264)" fill="#fff"/><path d="M190.685,39.557,188.8,33.838l4.377-1.438.383,1.182-2.907.958.415,1.246,2.556-.831.383,1.15-2.556.831.735,2.173Z" transform="translate(-157.075 -30.515)" fill="#fff"/><path d="M224.579,32.954l-.479-6.006,1.565-.128.192,2.3,2.428-.192-.192-2.3,1.565-.128.479,6.006-1.565.128-.192-2.428-2.428.192.192,2.428Z" transform="translate(-181.097 -26.5)" fill="#fff"/><path d="M254.731,33.179a3.641,3.641,0,0,1-1.661-.511,2.4,2.4,0,0,1-.958-1.15,3.439,3.439,0,0,1-.192-1.757,3.658,3.658,0,0,1,.543-1.693,2.414,2.414,0,0,1,1.182-.927,3.684,3.684,0,0,1,1.725-.192,3.641,3.641,0,0,1,1.661.511,2.661,2.661,0,0,1,.99,1.15,3.4,3.4,0,0,1,.192,1.757,3.657,3.657,0,0,1-.543,1.693,2.413,2.413,0,0,1-1.182.927A3.877,3.877,0,0,1,254.731,33.179Zm.128-1.214a2.252,2.252,0,0,0,.671-.032,1.02,1.02,0,0,0,.511-.288,1.217,1.217,0,0,0,.351-.511,2.275,2.275,0,0,0,.16-.7l.032-.383a1.875,1.875,0,0,0-.032-.735,1.547,1.547,0,0,0-.224-.575,1.3,1.3,0,0,0-.447-.383,2.121,2.121,0,0,0-.639-.192,2.251,2.251,0,0,0-.671.032,1.333,1.333,0,0,0-.511.288,1.6,1.6,0,0,0-.351.511,2.274,2.274,0,0,0-.16.7l-.032.383a1.684,1.684,0,0,0,.032.7,1.547,1.547,0,0,0,.224.575,1.3,1.3,0,0,0,.447.383A1.888,1.888,0,0,0,254.859,31.965Z" transform="translate(-200.003 -26.789)" fill="#fff"/><path d="M278.4,36.451l1.757-5.751,2.172.671-.1,2.78v.383c0,.16-.032.351-.032.511,0,.192-.032.351-.032.479l.064.032a3.46,3.46,0,0,0,.192-.351c.064-.128.16-.288.256-.447a4.729,4.729,0,0,1,.256-.415l1.47-2.332,2.141.639L284.79,38.4l-1.47-.447.735-2.46c.064-.256.16-.479.224-.735s.16-.479.224-.671a2,2,0,0,0,.128-.447l-.064-.032c-.032.064-.1.192-.192.351s-.16.288-.256.447-.192.288-.255.415l-1.757,2.748-1.214-.383.064-3.259a2.436,2.436,0,0,1,.032-.447c0-.16.032-.351.032-.511s.032-.319.032-.447l-.064-.032c-.032.16-.1.319-.16.543l-.192.671c-.064.224-.128.447-.192.639l-.735,2.46Z" transform="translate(-218.049 -29.358)" fill="#fff"/><path d="M306.6,47.035l2.78-5.335,4.409,2.3-.575,1.086-3-1.565-.511.99,2.62,1.374-.543,1.054-2.62-1.374-.575,1.086,3.067,1.6-.575,1.086Z" transform="translate(-237.239 -36.844)" fill="#fff"/><path d="M339.455,70.186a3.585,3.585,0,0,1-1.022-1.342,2.313,2.313,0,0,1-.1-1.47,3.5,3.5,0,0,1,.895-1.534,3.367,3.367,0,0,1,2.141-1.246,3.133,3.133,0,0,1,2.2.895,3.312,3.312,0,0,1,.895,1.15,2.21,2.21,0,0,1,.192,1.278,2.461,2.461,0,0,1-.639,1.246l-1.15-1.022a1.249,1.249,0,0,0,.32-.607,1.3,1.3,0,0,0-.032-.607,1.086,1.086,0,0,0-.415-.543,1.371,1.371,0,0,0-.735-.383,1.207,1.207,0,0,0-.735.128,2.325,2.325,0,0,0-.7.575l-.255.288a2.128,2.128,0,0,0-.479.8,1.167,1.167,0,0,0-.032.735,1.467,1.467,0,0,0,.479.671,1.7,1.7,0,0,0,.639.383.794.794,0,0,0,.607-.032,1.219,1.219,0,0,0,.543-.383l1.118.99a2.441,2.441,0,0,1-1.15.8,2.186,2.186,0,0,1-1.278-.032A2.864,2.864,0,0,1,339.455,70.186Z" transform="translate(-258.784 -52.422)" fill="#fff"/><path d="M352.8,87.513l6.1-2.013,1.182,1.47L356.794,92.5l-1.054-1.31.575-.927-1.5-1.885-1.054.383Zm3.227.447,1.022,1.278.735-1.118a1.388,1.388,0,0,0,.128-.224c.064-.1.128-.16.192-.256l.192-.288a1.125,1.125,0,0,0,.16-.256l-.032-.032a3.749,3.749,0,0,1-.352.16c-.128.064-.287.1-.415.16a2.427,2.427,0,0,1-.351.128Z" transform="translate(-268.679 -66.65)" fill="#fff"/><path d="M369.1,107.107l5.272-2.907,1.693,3.067a2.2,2.2,0,0,1,.32,1.086,1.665,1.665,0,0,1-.288.927,2.5,2.5,0,0,1-.735.671,1.744,1.744,0,0,1-1.022.256,1.913,1.913,0,0,1-.99-.32l-1.5,2.2-.831-1.534,1.374-1.885-.671-1.214-1.853,1.022Zm3.642-.192.767,1.406a.618.618,0,0,0,.447.351,1.057,1.057,0,0,0,.607-.1.87.87,0,0,0,.32-.256.643.643,0,0,0,.1-.351.85.85,0,0,0-.1-.383l-.767-1.406Z" transform="translate(-279.771 -79.376)" fill="#fff"/><path d="M380.6,131.749l5.687-1.949,1.629,4.7-1.15.415-1.118-3.227-1.054.383.958,2.812-1.15.383-.958-2.812-1.182.415,1.118,3.259-1.15.415Z" transform="translate(-287.597 -96.797)" fill="#fff"/></g><g transform="translate(39.233 20.543)"><ellipse cx="38.85" cy="38.882" rx="38.85" ry="38.882" transform="translate(0.607 0.575)" fill="#f9f5ed"/><path d="M162.257,67.95a38.307,38.307,0,1,1-38.275,38.307A38.287,38.287,0,0,1,162.257,67.95m0-1.15a39.487,39.487,0,1,0,27.891,11.565A39.2,39.2,0,0,0,162.257,66.8Z" transform="translate(-122.8 -66.8)" fill="#2a1e3b"/></g><g transform="translate(65.451 30.064)"><g transform="translate(8.847)"><path d="M237.936,120.338l3.546-22.2a1.088,1.088,0,0,0-.894-1.246,22.21,22.21,0,0,0-7.125,0,1.082,1.082,0,0,0-.895,1.246l3.578,22.2A.905.905,0,0,0,237.936,120.338Z" transform="translate(-232.554 -96.6)" fill="#e5b239"/></g><g transform="translate(18.977 6.571)"><path d="M265.3,131.266l6.518-11.757a.675.675,0,0,0-.256-.895,13.025,13.025,0,0,0-3.994-1.438.655.655,0,0,0-.767.511l-2.524,13.195A.55.55,0,0,0,265.3,131.266Z" transform="translate(-264.26 -117.166)" fill="#e5b239"/></g><g transform="translate(0 6.571)"><path d="M212.51,130.883l-2.556-13.195a.655.655,0,0,0-.767-.511,12.8,12.8,0,0,0-3.994,1.47.675.675,0,0,0-.256.895l6.549,11.757A.562.562,0,0,0,212.51,130.883Z" transform="translate(-204.863 -117.166)" fill="#e5b239"/></g></g><g transform="translate(36.581 87.284)"><path d="M114.5,279.742l4.824-3.642.958,1.246-4.824,3.642Z" transform="translate(-114.5 -275.972)" fill="#fff"/><path d="M124.5,291.149l4.281-4.249.99.99-.447,3.514a.793.793,0,0,1-.032.256,1.136,1.136,0,0,1-.064.32c-.032.1-.032.192-.064.256l.032.032.256-.256.224-.224,1.981-1.981,1.022,1.022-4.281,4.249-.99-.99.447-3.738a1.358,1.358,0,0,1,.064-.351,2.031,2.031,0,0,1,.064-.287l-.032-.032-.192.192-.16.16-2.077,2.077Z" transform="translate(-121.305 -283.322)" fill="#fff"/><path d="M155.1,315.844l3.131-5.144,4.249,2.588-.639,1.054-2.907-1.757-.575.958,2.524,1.534-.639,1.022-2.524-1.534-.639,1.054,2.939,1.789-.639,1.054Z" transform="translate(-142.129 -299.518)" fill="#fff"/><path d="M176.5,327.427l3.195-2.141-.767-3.387,1.757.7.383,2.045.032.032,1.693-1.214,1.661.671-2.875,1.917.831,3.738-1.789-.7-.447-2.428-.032-.032-1.981,1.438Z" transform="translate(-156.692 -307.14)" fill="#fff"/><path d="M204.2,336.679l1.278-5.879,3.227.7a1.938,1.938,0,0,1,.958.479,1.737,1.737,0,0,1,.511.831,1.965,1.965,0,0,1,0,1.054,2.587,2.587,0,0,1-.447.99,1.65,1.65,0,0,1-.831.543,2.461,2.461,0,0,1-1.086.032l-1.661-.351-.447,1.981Zm2.2-2.843,1.31.287a.651.651,0,0,0,.607-.1.836.836,0,0,0,.32-.511,1.052,1.052,0,0,0,0-.447.663.663,0,0,0-.192-.32,1.077,1.077,0,0,0-.383-.192l-1.31-.288Z" transform="translate(-175.542 -313.196)" fill="#fff"/><path d="M230.3,341.106l.319-6.006,4.952.256-.064,1.214-3.387-.16-.064,1.118,2.971.16-.064,1.214-2.971-.16-.064,1.246,3.45.192-.064,1.214Z" transform="translate(-193.303 -316.122)" fill="#fff"/><path d="M255.471,340.8l-.671-5.974,3.482-.383a2.211,2.211,0,0,1,1.15.128,1.389,1.389,0,0,1,.735.607,1.79,1.79,0,0,1,.32.927,1.94,1.94,0,0,1-.16,1.054,1.777,1.777,0,0,1-.671.8l1.47,2.236-1.757.192-1.246-1.981-1.374.16.256,2.109Zm1.182-3.451,1.6-.192a.625.625,0,0,0,.479-.288.758.758,0,0,0,.128-.607,1.078,1.078,0,0,0-.128-.383.509.509,0,0,0-.287-.224.52.52,0,0,0-.383-.032l-1.6.192Z" transform="translate(-209.976 -315.661)" fill="#fff"/><path d="M281.07,336.83l-1.47-5.847,1.534-.383,1.47,5.847Z" transform="translate(-226.852 -313.06)" fill="#fff"/><path d="M294.936,329.944l-2.236-5.591,4.633-1.853.447,1.15-3.163,1.246.415,1.054,2.748-1.086.447,1.118-2.748,1.086.447,1.15,3.227-1.278.447,1.15Z" transform="translate(-235.767 -307.548)" fill="#fff"/><path d="M317.263,317.883l-3.163-5.144,1.182-.735,3.323,1.246c.064.032.128.032.256.1a1.338,1.338,0,0,0,.319.128,2.116,2.116,0,0,1,.224.1l.032-.032c-.064-.1-.128-.224-.192-.32a2.913,2.913,0,0,1-.16-.255l-1.47-2.4,1.246-.767,3.163,5.144-1.182.735-3.514-1.31a3.3,3.3,0,0,1-.32-.128,1.894,1.894,0,0,1-.255-.128l-.032.032a1.779,1.779,0,0,1,.16.256,1.926,1.926,0,0,0,.128.192l1.534,2.524Z" transform="translate(-250.33 -298.905)" fill="#fff"/><path d="M343.618,301.622a3.611,3.611,0,0,1-1.47.831,2.341,2.341,0,0,1-1.47-.1,3.884,3.884,0,0,1-1.438-1.086,2.74,2.74,0,0,1,.224-4.345,4.124,4.124,0,0,1,1.278-.767,2.186,2.186,0,0,1,1.278-.032,2.685,2.685,0,0,1,1.182.8l-1.15,1.022a1.219,1.219,0,0,0-.543-.383.989.989,0,0,0-.607-.032,1.4,1.4,0,0,0-.607.32,1.468,1.468,0,0,0-.479.671,1.168,1.168,0,0,0,.032.735,2.528,2.528,0,0,0,.479.767l.256.288a2.432,2.432,0,0,0,.735.575,1.207,1.207,0,0,0,.735.128,1.371,1.371,0,0,0,.735-.383,1.76,1.76,0,0,0,.447-.575,1,1,0,0,0,.064-.607,1.4,1.4,0,0,0-.32-.607l1.118-.99a2.591,2.591,0,0,1,.639,1.246,2.144,2.144,0,0,1-.192,1.246A3.29,3.29,0,0,1,343.618,301.622Z" transform="translate(-266.781 -289.545)" fill="#fff"/><path d="M358.6,283.336l-4.7-3.77,3.131-3.866.958.767-2.141,2.652.895.7,1.853-2.3.927.767-1.853,2.3.958.767,2.173-2.684.958.767Z" transform="translate(-277.414 -275.7)" fill="#fff"/></g><g transform="translate(17.827 60.288)" opacity="0.38"><path d="M177.557,191.2a60.939,60.939,0,0,1-7.189,26.741H62.989A60.511,60.511,0,0,1,55.8,191.2Z" transform="translate(-55.8 -191.2)" fill="#2a1e3b"/></g><rect width="127.316" height="26.326" transform="translate(15.08 57.827)" fill="#3ca291"/><g transform="translate(27.157 63.482)"><path d="M85,216.44V201.2h3.962v11.981h7.732v3.259Z" transform="translate(-85 -201.2)" fill="#fff"/><path d="M135.2,216.44V201.2h12.556v3.1h-8.594v2.843h7.508v3.035h-7.508v3.131h8.754v3.1H135.2Z" transform="translate(-119.162 -201.2)" fill="#fff"/><path d="M185.8,216.44l5.719-15.24h4.76L202,216.44h-4.217l-.895-2.652h-6.07l-.895,2.652Zm5.943-5.623H195.9l-1.086-3.227c-.064-.16-.128-.351-.224-.607s-.16-.511-.256-.767a8,8,0,0,1-.224-.831c-.064-.288-.16-.511-.224-.735h-.16c-.064.288-.16.607-.256.958s-.224.7-.319,1.054-.224.671-.288.926Z" transform="translate(-153.596 -201.2)" fill="#fff"/><path d="M249.1,216.44V201.2h6.358a9.573,9.573,0,0,1,4.185.831,5.658,5.658,0,0,1,2.62,2.492,10.691,10.691,0,0,1,0,8.562,5.725,5.725,0,0,1-2.62,2.524,9.773,9.773,0,0,1-4.185.831Zm3.962-3.1h2.332a5.128,5.128,0,0,0,1.629-.256,3.627,3.627,0,0,0,1.15-.767,2.89,2.89,0,0,0,.671-1.278,5.791,5.791,0,0,0,.224-1.725v-.927a5.869,5.869,0,0,0-.224-1.757,3.734,3.734,0,0,0-.671-1.278,2.808,2.808,0,0,0-1.15-.767,4.158,4.158,0,0,0-1.629-.256h-2.332Z" transform="translate(-196.672 -201.2)" fill="#fff"/><path d="M308.5,216.44V201.2h12.556v3.1h-8.594v2.843h7.508v3.035h-7.508v3.131h8.754v3.1H308.5Z" transform="translate(-237.094 -201.2)" fill="#fff"/><path d="M363.7,216.44V201.2h8.85a5.8,5.8,0,0,1,2.811.639,4.008,4.008,0,0,1,1.693,1.725,5.176,5.176,0,0,1,.575,2.46,5.075,5.075,0,0,1-.671,2.62,4.841,4.841,0,0,1-1.885,1.789l3.067,6.038H373.7l-2.524-5.367h-3.482v5.367H363.7Zm3.962-8.307h4.089a1.708,1.708,0,0,0,1.31-.543,2.072,2.072,0,0,0,.511-1.438,2.1,2.1,0,0,0-.224-1.022,1.473,1.473,0,0,0-.607-.639,2.122,2.122,0,0,0-.958-.224h-4.089v3.866Z" transform="translate(-274.659 -201.2)" fill="#fff"/></g></g></g></svg>