<svg xmlns="http://www.w3.org/2000/svg" xmlns:xlink="http://www.w3.org/1999/xlink" width="160" height="160" viewBox="0 0 160 160"><defs><clipPath id="b"><rect width="160" height="160"/></clipPath></defs><g id="a" clip-path="url(#b)"><g transform="translate(16 20)"><path d="M112.711,280.072H14.771L0,269.7H127.482Z" transform="translate(0 -185.536)" fill="#1a6358"/><g transform="translate(3.693 0)"><path d="M71.516,7.6a60,60,0,1,0,60.016,59.984A60,60,0,0,0,71.516,7.6Zm0,99.192a39.176,39.176,0,1,1,39.176-39.176A39.167,39.167,0,0,1,71.516,106.792Z" transform="translate(-11.5 -7.6)" fill="#f9f5ed"/><path d="M71.516,9.206a58.184,58.184,0,0,1,41.3,17.115,58.634,58.634,0,0,1,12.523,18.56,58.323,58.323,0,0,1-12.523,64.03,58.634,58.634,0,0,1-18.56,12.523,58.323,58.323,0,0,1-64.03-12.523A58.634,58.634,0,0,1,17.7,90.351a58.323,58.323,0,0,1,12.523-64.03A58.634,58.634,0,0,1,48.781,13.8,57.992,57.992,0,0,1,71.516,9.206m0,99.192A40.784,40.784,0,1,0,42.648,96.452,40.59,40.59,0,0,0,71.516,108.4m0-100.8a60,60,0,1,0,60.016,59.984A60,60,0,0,0,71.516,7.6Zm0,99.192a39.176,39.176,0,1,1,39.176-39.176,39.167,39.167,0,0,1-39.176,39.176Z" transform="translate(-11.5 -7.6)" fill="#291e3b"/></g><g transform="translate(13.551 7.642)"><path d="M47.884,139.826,42.2,137.8l1.22-3.468a1.906,1.906,0,0,1,.45-.739,1.429,1.429,0,0,1,.674-.385,1.174,1.174,0,0,1,.8.064,1.269,1.269,0,0,1,.578.353,1.4,1.4,0,0,1,.321.482,1.153,1.153,0,0,1,.064.578h.032a2.051,2.051,0,0,1,.417-.482,1.271,1.271,0,0,1,.61-.225,1.52,1.52,0,0,1,.739.1,1.606,1.606,0,0,1,.739.514,1.768,1.768,0,0,1,.321.8,1.93,1.93,0,0,1-.128.931Zm-2.89-2.7.514-1.477a.579.579,0,0,0,.032-.321.645.645,0,0,0-.128-.257,1.12,1.12,0,0,0-.289-.193.626.626,0,0,0-.482,0,.646.646,0,0,0-.289.353l-.546,1.509Zm2.28.8.578-1.606a.626.626,0,0,0,0-.482.559.559,0,0,0-.417-.321.624.624,0,0,0-.61.1.462.462,0,0,0-.193.321l-.578,1.573Z" transform="translate(-42.2 -100.489)" fill="#2a1e3b"/><path d="M57.866,115.089,52.6,112.135l2.44-4.335,1.06.61L54.43,111.4l1,.546,1.445-2.6,1.06.578-1.445,2.6,1.092.61,1.7-3.018,1.06.61Z" transform="translate(-49.26 -83.267)" fill="#2a1e3b"/><path d="M74.562,93.435a5.628,5.628,0,0,1-.739.771,2.666,2.666,0,0,1-.8.482,1.869,1.869,0,0,1-.835.1,1.554,1.554,0,0,1-.867-.417c-.032,0-.032-.032-.064-.064l-.064-.064.963-1.188a.112.112,0,0,0,.064.032c.032.032.032.032.064.032a.648.648,0,0,0,.45.161.852.852,0,0,0,.45-.161,2.665,2.665,0,0,0,.45-.417,1.765,1.765,0,0,0,.225-.289,1.893,1.893,0,0,0,.128-.257.605.605,0,0,0,.064-.257.546.546,0,0,0-.032-.225.321.321,0,0,0-.128-.161.362.362,0,0,0-.353-.1,1.217,1.217,0,0,0-.417.193,4.591,4.591,0,0,0-.482.353c-.161.128-.353.289-.546.417a6.024,6.024,0,0,1-.578.385,2.476,2.476,0,0,1-.61.257,1.094,1.094,0,0,1-.642,0,1.378,1.378,0,0,1-.674-.353,1.467,1.467,0,0,1-.514-.674,1.683,1.683,0,0,1-.1-.8,2.778,2.778,0,0,1,.257-.835,3.394,3.394,0,0,1,.546-.835,7.169,7.169,0,0,1,.674-.706,2.58,2.58,0,0,1,.771-.417,1.294,1.294,0,0,1,.771-.064,1.663,1.663,0,0,1,.771.353l.1.064-.931,1.188L71.9,89.9a.483.483,0,0,0-.353-.128.855.855,0,0,0-.385.1,1.359,1.359,0,0,0-.417.353,1.916,1.916,0,0,0-.289.482.553.553,0,0,0-.064.385.484.484,0,0,0,.128.257.35.35,0,0,0,.353.064,1.567,1.567,0,0,0,.417-.193,4.6,4.6,0,0,0,.482-.353c.161-.128.353-.289.546-.417a3.016,3.016,0,0,1,.578-.385,2.479,2.479,0,0,1,.61-.257,1.451,1.451,0,0,1,.642-.032,1.513,1.513,0,0,1,.642.321,1.863,1.863,0,0,1,.706,1,1.72,1.72,0,0,1-.1,1.124A11.618,11.618,0,0,1,74.562,93.435Z" transform="translate(-60.369 -70.026)" fill="#2a1e3b"/><path d="M88.591,74.44l-3.179-3.532-1.445,1.317-.867-.963L87.178,67.6l.867.963L86.6,69.88l3.179,3.532Z" transform="translate(-69.966 -55.976)" fill="#2a1e3b"/><path d="M120.952,54.764a3.407,3.407,0,0,1-1.67.482,2.372,2.372,0,0,1-1.445-.417,3.474,3.474,0,0,1-1.156-1.349,3.721,3.721,0,0,1-.482-1.7,2.28,2.28,0,0,1,.482-1.413,3.6,3.6,0,0,1,1.349-1.092,3.407,3.407,0,0,1,1.67-.482,2.372,2.372,0,0,1,1.445.417,3.474,3.474,0,0,1,1.156,1.349,3.721,3.721,0,0,1,.482,1.7,2.28,2.28,0,0,1-.482,1.413A4.273,4.273,0,0,1,120.952,54.764Zm-.578-1.092a2.45,2.45,0,0,0,.546-.417,1.629,1.629,0,0,0,.289-.514,1.3,1.3,0,0,0,0-.61,1.943,1.943,0,0,0-.257-.674l-.193-.353a2.063,2.063,0,0,0-.417-.578,1.725,1.725,0,0,0-.514-.321,1.2,1.2,0,0,0-.578-.064,1.928,1.928,0,0,0-.642.225,1.883,1.883,0,0,0-.546.417,1.113,1.113,0,0,0-.257.514,1.84,1.84,0,0,0,.257,1.284l.193.353a2.672,2.672,0,0,0,.417.578,1.257,1.257,0,0,0,.514.321,1.2,1.2,0,0,0,.578.064A2.056,2.056,0,0,0,120.374,53.672Z" transform="translate(-92.438 -43.204)" fill="#2a1e3b"/><path d="M142.995,44.461,141.1,38.745l4.4-1.445.385,1.156-2.89.963.417,1.22,2.537-.835.385,1.156L143.8,41.8l.706,2.184Z" transform="translate(-109.342 -35.405)" fill="#2a1e3b"/><path d="M176.782,37.854l-.482-6,1.573-.128.193,2.312,2.44-.193-.193-2.312,1.573-.128.482,6-1.573.128-.193-2.408-2.44.193.193,2.408Z" transform="translate(-133.239 -31.4)" fill="#2a1e3b"/><path d="M206.775,38.036a3.789,3.789,0,0,1-1.67-.514,2.276,2.276,0,0,1-.963-1.156,3.788,3.788,0,0,1-.193-1.766,3.676,3.676,0,0,1,.546-1.7,2.466,2.466,0,0,1,1.188-.931,3.35,3.35,0,0,1,1.734-.161,3.789,3.789,0,0,1,1.67.514,2.34,2.34,0,0,1,.963,1.124,3.789,3.789,0,0,1,.193,1.766,3.676,3.676,0,0,1-.546,1.7,2.292,2.292,0,0,1-1.188.931A3.7,3.7,0,0,1,206.775,38.036Zm.128-1.22a2.263,2.263,0,0,0,.674-.032,1.34,1.34,0,0,0,.514-.289,1.222,1.222,0,0,0,.353-.514,2.521,2.521,0,0,0,.161-.706l.032-.385a1.882,1.882,0,0,0-.032-.739,2.412,2.412,0,0,0-.225-.578,1.307,1.307,0,0,0-.45-.385,2.131,2.131,0,0,0-.642-.193,2.262,2.262,0,0,0-.674.032,1.339,1.339,0,0,0-.514.289,1.6,1.6,0,0,0-.353.514,2.519,2.519,0,0,0-.161.706l-.032.385a1.691,1.691,0,0,0,.032.706,1.219,1.219,0,0,0,.225.546,1.307,1.307,0,0,0,.45.385A1.923,1.923,0,0,0,206.9,36.816Z" transform="translate(-151.993 -31.646)" fill="#2a1e3b"/><path d="M230.4,41.28l1.766-5.78,2.184.674-.1,2.794v.385c0,.161-.032.353-.032.514,0,.193-.032.353-.032.482l.064.032a3.5,3.5,0,0,0,.193-.353c.064-.128.161-.289.257-.45a4.754,4.754,0,0,1,.257-.417l1.477-2.344,2.119.642-1.766,5.78-1.445-.45.739-2.473c.064-.225.161-.482.225-.739s.161-.482.225-.674a2.009,2.009,0,0,0,.128-.45l-.064-.032c-.032.064-.1.193-.193.353s-.161.289-.257.45a4.753,4.753,0,0,1-.257.417l-1.766,2.729-1.22-.353.064-3.243a1.977,1.977,0,0,1,.032-.417c0-.161.032-.353.032-.514s.032-.321.032-.45L233,37.362c-.032.161-.1.321-.161.546s-.128.417-.193.674c-.064.225-.128.45-.193.642l-.739,2.473Z" transform="translate(-169.967 -34.183)" fill="#2a1e3b"/><path d="M258.4,51.83l2.794-5.33,4.4,2.312-.578,1.092L262,48.33l-.514,1,2.633,1.381-.546,1.06-2.633-1.381-.578,1.092,3.083,1.606-.578,1.092Z" transform="translate(-188.975 -41.651)" fill="#2a1e3b"/><path d="M291.161,75.05a3.6,3.6,0,0,1-1.028-1.349,2.241,2.241,0,0,1-.1-1.445,3.517,3.517,0,0,1,.9-1.541,2.792,2.792,0,0,1,4.367-.321,3.331,3.331,0,0,1,.9,1.156,2.222,2.222,0,0,1,.193,1.284,2.6,2.6,0,0,1-.642,1.252L294.6,73.059a1.254,1.254,0,0,0,.321-.61,1.312,1.312,0,0,0-.032-.61,1.092,1.092,0,0,0-.417-.546,1.378,1.378,0,0,0-.739-.385,1.213,1.213,0,0,0-.739.128,2.336,2.336,0,0,0-.706.578l-.257.289a3,3,0,0,0-.482.771,1.174,1.174,0,0,0-.032.739,1.475,1.475,0,0,0,.482.674,1.292,1.292,0,0,0,.642.353.806.806,0,0,0,.61-.032,1.225,1.225,0,0,0,.546-.385l1.124,1a2.453,2.453,0,0,1-1.156.8,2.2,2.2,0,0,1-1.284-.032A3.621,3.621,0,0,1,291.161,75.05Z" transform="translate(-210.401 -57.261)" fill="#2a1e3b"/><path d="M304.5,92.123l6.133-2.023,1.188,1.477-3.307,5.555-1.06-1.317.578-.931-1.509-1.862-1.028.385Zm3.211.45,1.028,1.284.739-1.124a1.4,1.4,0,0,0,.128-.225c.064-.1.128-.161.193-.257l.193-.289a1.125,1.125,0,0,0,.161-.257l-.032-.032a3.767,3.767,0,0,1-.353.161c-.128.064-.289.1-.417.161a2.434,2.434,0,0,1-.353.128Z" transform="translate(-220.272 -71.251)" fill="#2a1e3b"/><path d="M320.8,111.79l5.3-2.89,1.7,3.083a2.209,2.209,0,0,1,.321,1.092,1.674,1.674,0,0,1-.289.931,2.508,2.508,0,0,1-.739.674,1.753,1.753,0,0,1-1.028.257,1.923,1.923,0,0,1-1-.321l-1.509,2.216-.835-1.541,1.381-1.895-.674-1.22-1.862,1.028Zm3.629-.225.771,1.413a.621.621,0,0,0,.45.353,1.062,1.062,0,0,0,.61-.1.875.875,0,0,0,.321-.257.648.648,0,0,0,.1-.353.856.856,0,0,0-.1-.385l-.771-1.413Z" transform="translate(-231.338 -84.014)" fill="#2a1e3b"/><path d="M332.2,136.159l5.716-1.959,1.606,4.72-1.156.385-1.124-3.211-1.06.353.963,2.826-1.124.385-.963-2.826-1.156.417,1.124,3.275-1.156.385Z" transform="translate(-239.077 -101.19)" fill="#2a1e3b"/></g><g transform="translate(24.34 20.648)"><ellipse cx="38.534" cy="38.534" rx="38.534" ry="38.534" transform="translate(0.835 0.803)" fill="#2a1e3b"/><path d="M115.168,73.538a37.7,37.7,0,1,1-37.7,37.7,37.714,37.714,0,0,1,37.7-37.7m0-1.638a39.359,39.359,0,1,0,27.841,11.528A39.24,39.24,0,0,0,115.168,71.9Z" transform="translate(-75.8 -71.9)" fill="#fff"/></g><g transform="translate(50.435 30.024)"><g transform="translate(8.861)"><path d="M190.065,124.862l3.532-22.221a1.111,1.111,0,0,0-.9-1.252,22.125,22.125,0,0,0-7.129,0,1.111,1.111,0,0,0-.9,1.252l3.564,22.189A.923.923,0,0,0,190.065,124.862Z" transform="translate(-184.657 -101.1)" fill="#e5b239"/></g><g transform="translate(19.009 6.604)"><path d="M217.3,135.774l6.551-11.753a.678.678,0,0,0-.257-.9,12.8,12.8,0,0,0-4.014-1.445.659.659,0,0,0-.771.514l-2.537,13.2A.555.555,0,0,0,217.3,135.774Z" transform="translate(-216.26 -121.666)" fill="#e5b239"/></g><g transform="translate(0 6.604)"><path d="M164.717,135.388l-2.537-13.2a.658.658,0,0,0-.771-.514,12.865,12.865,0,0,0-4.014,1.477.678.678,0,0,0-.257.9l6.551,11.753A.563.563,0,0,0,164.717,135.388Z" transform="translate(-157.062 -121.666)" fill="#e5b239"/></g></g><g transform="translate(33.004 96.88)"><path d="M104.329,318.263a4,4,0,0,1-1.22-1.22,2.571,2.571,0,0,1-.321-1.477,3.775,3.775,0,0,1,.642-1.638,3.289,3.289,0,0,1,1.284-1.22,2.351,2.351,0,0,1,1.477-.257,3.6,3.6,0,0,1,1.606.674,3.683,3.683,0,0,1,1.22,1.22,2.571,2.571,0,0,1,.321,1.477,3.414,3.414,0,0,1-.642,1.638,3.288,3.288,0,0,1-1.284,1.22,2.388,2.388,0,0,1-1.477.257A4.535,4.535,0,0,1,104.329,318.263Zm.674-1.028a2.627,2.627,0,0,0,.61.289,1.747,1.747,0,0,0,.578,0,1.012,1.012,0,0,0,.546-.289,4.161,4.161,0,0,0,.482-.546l.225-.321a2.392,2.392,0,0,0,.321-.642,1.327,1.327,0,0,0,.064-.61,1.166,1.166,0,0,0-.225-.546,1.987,1.987,0,0,0-1.092-.771,1.746,1.746,0,0,0-.578,0,1.505,1.505,0,0,0-.546.289,2.77,2.77,0,0,0-.482.546l-.225.321a2.006,2.006,0,0,0-.321.642,1.371,1.371,0,0,0-.064.61,1.166,1.166,0,0,0,.225.546A1.721,1.721,0,0,0,105,317.236Z" transform="translate(-102.781 -311.423)" fill="#2a1e3b"/><path d="M125.4,329.191l2.473-5.491,4.207,1.895-.514,1.124-2.794-1.252-.546,1.188,2.44,1.092-.482,1.092-2.44-1.092-.931,2.087Z" transform="translate(-118.137 -319.076)" fill="#2a1e3b"/><path d="M161.973,342.032a4.147,4.147,0,0,1-1.573-.642,2.112,2.112,0,0,1-.8-1.22,4.22,4.22,0,0,1,0-1.8,3.168,3.168,0,0,1,1.22-2.151,2.986,2.986,0,0,1,2.344-.321,3.557,3.557,0,0,1,1.381.546,2.18,2.18,0,0,1,.8,1,2.563,2.563,0,0,1,.1,1.413l-1.509-.289a1.177,1.177,0,0,0-.032-.674,1.346,1.346,0,0,0-.353-.514,1.7,1.7,0,0,0-.642-.289,1.439,1.439,0,0,0-.835.032,1.374,1.374,0,0,0-.578.482,2.126,2.126,0,0,0-.321.867l-.064.385a3.11,3.11,0,0,0-.032.931,1.155,1.155,0,0,0,.353.642,1.589,1.589,0,0,0,.739.353,1.434,1.434,0,0,0,.739,0,.945.945,0,0,0,.514-.321,1.542,1.542,0,0,0,.289-.61l1.445.289a2.3,2.3,0,0,1-.61,1.252,2.039,2.039,0,0,1-1.124.61A2.422,2.422,0,0,1,161.973,342.032Z" transform="translate(-141.287 -327.293)" fill="#2a1e3b"/><path d="M186.5,344.937l.128-6.037,1.573.032-.032,2.312,2.44.032.032-2.312,1.573.032-.128,6.037L190.514,345l.032-2.44-2.44-.032-.032,2.44Z" transform="translate(-159.617 -329.395)" fill="#2a1e3b"/><path d="M216.682,343.026a3.877,3.877,0,0,1-1.734-.064,2.387,2.387,0,0,1-1.22-.867,3.441,3.441,0,0,1-.642-1.67,3.934,3.934,0,0,1,.1-1.766,2.365,2.365,0,0,1,.9-1.188,3.816,3.816,0,0,1,1.606-.61,3.879,3.879,0,0,1,1.734.064,2.53,2.53,0,0,1,1.22.835,3.446,3.446,0,0,1,.642,1.638,3.934,3.934,0,0,1-.1,1.766,2.365,2.365,0,0,1-.9,1.188A3.208,3.208,0,0,1,216.682,343.026Zm-.193-1.22a1.9,1.9,0,0,0,.642-.225,1.044,1.044,0,0,0,.417-.417,1.535,1.535,0,0,0,.193-.578,1.773,1.773,0,0,0-.032-.706l-.064-.385a2.6,2.6,0,0,0-.225-.706,1.349,1.349,0,0,0-.931-.739,2.352,2.352,0,0,0-.674,0,1.676,1.676,0,0,0-.642.225,1.044,1.044,0,0,0-.417.417,1.534,1.534,0,0,0-.193.578,1.957,1.957,0,0,0,.032.739l.064.385a2.075,2.075,0,0,0,.193.674,1.422,1.422,0,0,0,.385.482,1.547,1.547,0,0,0,.514.257A2.844,2.844,0,0,0,216.489,341.806Z" transform="translate(-177.629 -327.966)" fill="#2a1e3b"/><path d="M240.366,338.3,238.6,332.55l1.509-.45,1.766,5.748Z" transform="translate(-194.987 -324.779)" fill="#2a1e3b"/><path d="M257.817,330.3a3.212,3.212,0,0,1-1.638.385,2.225,2.225,0,0,1-1.381-.514,3.681,3.681,0,0,1-1.06-1.445,2.741,2.741,0,0,1,1.445-4.078,3.417,3.417,0,0,1,1.445-.353,2.349,2.349,0,0,1,1.252.321,2.581,2.581,0,0,1,.9,1.092l-1.381.642a1.456,1.456,0,0,0-.417-.546.9.9,0,0,0-.578-.193,1.379,1.379,0,0,0-.674.161,1.517,1.517,0,0,0-.642.514,1.294,1.294,0,0,0-.193.706,2.142,2.142,0,0,0,.257.9l.161.353a2.921,2.921,0,0,0,.514.771,1.11,1.11,0,0,0,.674.321,1.5,1.5,0,0,0,.8-.161,1.678,1.678,0,0,0,.578-.417.923.923,0,0,0,.225-.578,1.784,1.784,0,0,0-.128-.674l1.349-.61a2.457,2.457,0,0,1,.257,1.381,2.145,2.145,0,0,1-.546,1.156A3.214,3.214,0,0,1,257.817,330.3Z" transform="translate(-204.988 -319.483)" fill="#2a1e3b"/><path d="M277.1,317.1l-3.4-4.977,4.11-2.826.706,1.028-2.794,1.927.642.931,2.44-1.7.674,1-2.44,1.67.706,1.028,2.858-1.959.706,1.028Z" transform="translate(-218.816 -309.3)" fill="#2a1e3b"/></g><g transform="translate(3.693 60.915)" opacity="0.38"><path d="M131.532,197.3a59.793,59.793,0,0,1-7.1,26.331H18.6A59.793,59.793,0,0,1,11.5,197.3Z" transform="translate(-11.5 -197.3)" fill="#2a1e3b"/></g><rect width="127.482" height="26.331" transform="translate(0 57.832)" fill="#3ca291"/><g transform="translate(10.565 64.993)"><path d="M32.9,222.674V210.6h6.647a3.872,3.872,0,0,1,2.087.514,3.707,3.707,0,0,1,1.349,1.381,4.263,4.263,0,0,1,.45,2.087,4.308,4.308,0,0,1-.482,2.119,3.186,3.186,0,0,1-1.381,1.381,4.309,4.309,0,0,1-2.119.514h-3.4v4.078Zm3.147-6.486h2.7a1.432,1.432,0,0,0,1.124-.417,1.622,1.622,0,0,0,.385-1.156,2.2,2.2,0,0,0-.161-.867,1.137,1.137,0,0,0-.514-.514,1.69,1.69,0,0,0-.835-.193h-2.7Z" transform="translate(-32.9 -210.407)" fill="#fff"/><path d="M76.5,222.674V210.6h7a4.193,4.193,0,0,1,2.216.514,3.48,3.48,0,0,1,1.349,1.381,4.256,4.256,0,0,1,.45,1.927,4.009,4.009,0,0,1-.546,2.055,3.771,3.771,0,0,1-1.509,1.413l2.408,4.785h-3.5l-1.959-4.239H79.647v4.239Zm3.147-6.583H82.89a1.428,1.428,0,0,0,1.06-.417,1.676,1.676,0,0,0,.385-1.156,1.983,1.983,0,0,0-.161-.8,1.486,1.486,0,0,0-.482-.514,1.445,1.445,0,0,0-.771-.193H79.647Z" transform="translate(-62.499 -210.407)" fill="#fff"/><path d="M127.458,222.491a7.494,7.494,0,0,1-3.4-.706,4.9,4.9,0,0,1-2.184-2.087,8.188,8.188,0,0,1,0-6.936,4.672,4.672,0,0,1,2.184-2.055,7.837,7.837,0,0,1,3.4-.706,7.494,7.494,0,0,1,3.4.706,5,5,0,0,1,2.184,2.055,8.189,8.189,0,0,1,0,6.936,4.9,4.9,0,0,1-2.184,2.087A7.4,7.4,0,0,1,127.458,222.491Zm0-2.473a3.5,3.5,0,0,0,1.349-.225,2.61,2.61,0,0,0,.963-.674,2.818,2.818,0,0,0,.578-1.06,4.85,4.85,0,0,0,.193-1.413v-.771a4.921,4.921,0,0,0-.193-1.445,2.817,2.817,0,0,0-.578-1.06,2.609,2.609,0,0,0-.963-.674,4.159,4.159,0,0,0-2.7,0,2.609,2.609,0,0,0-.963.674,2.816,2.816,0,0,0-.578,1.06,4.921,4.921,0,0,0-.193,1.445v.771a4.85,4.85,0,0,0,.193,1.413,2.817,2.817,0,0,0,.578,1.06,2.61,2.61,0,0,0,.963.674A3.5,3.5,0,0,0,127.458,220.019Z" transform="translate(-92.778 -210)" fill="#fff"/><path d="M172.635,222.674,168.3,210.6h3.372l2.216,6.808c.032.128.1.321.161.546s.128.45.225.706c.064.225.128.45.193.642h.128c.064-.161.128-.385.193-.61l.193-.674c.064-.225.128-.417.161-.578l2.216-6.84H180.6l-4.3,12.074Z" transform="translate(-124.821 -210.407)" fill="#fff"/><path d="M217,222.674V210.6h3.147v12.074Z" transform="translate(-157.883 -210.407)" fill="#fff"/><path d="M240.4,222.674V210.6h5.042a8.043,8.043,0,0,1,3.34.642,4.347,4.347,0,0,1,2.055,1.959,8.554,8.554,0,0,1,0,6.808A4.407,4.407,0,0,1,248.781,222a7.938,7.938,0,0,1-3.34.642H240.4Zm3.147-2.44h1.862a3.168,3.168,0,0,0,1.284-.225,2.238,2.238,0,0,0,.9-.61,2.494,2.494,0,0,0,.546-1,4.532,4.532,0,0,0,.161-1.381v-.739a5.822,5.822,0,0,0-.161-1.381,2.371,2.371,0,0,0-1.445-1.606,3.827,3.827,0,0,0-1.284-.225h-1.862Z" transform="translate(-173.769 -210.407)" fill="#fff"/><path d="M287.2,222.674V210.6h9.955v2.473h-6.808v2.28h5.941v2.408h-5.941v2.473h6.936v2.473H287.2Z" transform="translate(-205.541 -210.407)" fill="#fff"/><path d="M330.8,222.674V210.6h7a4.193,4.193,0,0,1,2.216.514,3.48,3.48,0,0,1,1.349,1.381,4.256,4.256,0,0,1,.45,1.927,4.009,4.009,0,0,1-.546,2.055,3.771,3.771,0,0,1-1.509,1.413l2.408,4.785h-3.5l-1.991-4.239h-2.761v4.239Zm3.147-6.583h3.243a1.428,1.428,0,0,0,1.06-.417,1.676,1.676,0,0,0,.385-1.156,1.982,1.982,0,0,0-.161-.8,1.487,1.487,0,0,0-.482-.514,1.526,1.526,0,0,0-.771-.193h-3.243v3.083Z" transform="translate(-235.14 -210.407)" fill="#fff"/></g></g></g></svg>