
<svg width="88px" height="24px" viewBox="0 0 88 24" version="1.1" xmlns="http://www.w3.org/2000/svg" xmlns:xlink="http://www.w3.org/1999/xlink">
<path d="M11.9999929,0 C18.627417,0 23.9999929,5.372583 23.9999929,12 C23.9999929,18.627417 18.627417,24 11.9999929,24 C8.81634433,24.0034546 5.76208979,22.7402819 3.51090396,20.489096 C1.25971812,18.2379102 -0.00345457704,15.1836557 -7.06717139e-06,12 C-7.06717139e-06,5.372583 5.372583,0 11.9999929,0 Z M77.717,0.566 C82.371,0.566 86.646,2.598 86.646,7.747 L81.898,7.747 C81.733,5.078 79.843,4.369 77.504,4.369 C75.945,4.369 74.126,5.03 74.126,6.896 C74.126,8.621 75.189,8.833 80.764,10.274 C82.394,10.674 87.378,11.715 87.378,16.774 C87.378,20.861 84.165,23.908 78.118,23.908 C73.181,23.908 68.575,21.475 68.646,15.995 L73.394,15.968 C73.394,18.921 75.709,20.078 78.331,20.078 C80.055,20.078 82.654,19.578 82.654,17.314 C82.654,14.904 79.323,14.503 76.04,13.629 C72.733,12.755 69.402,11.479 69.402,7.298 C69.402,2.739 73.702,0.566 77.717,0.566 Z M37.467,0.564 C42.357,0.564 46.467,3.422 47.081,8.572 L42.33,8.575 C41.8883373,6.25492264 39.824578,4.6008615 37.464,4.675 C33.07,4.675 31.417,8.407 31.417,12.305 C31.417,16.014 33.071,19.769 37.464,19.769 C40.464,19.769 42.141,17.714 42.519,14.785 L47.267,14.785 C46.767,20.336 42.92,23.903 37.467,23.903 C30.567,23.903 26.53,18.753 26.53,12.328 C26.53,5.714 30.593,0.564 37.467,0.564 Z M59.22,1.087 C63.472,1.087 66.33,2.457 66.33,6.614 C66.3807166,8.64121619 65.1789719,10.4907267 63.306,11.268 C65.8561563,11.9112911 67.5780178,14.2905446 67.392,16.914 C67.392,21.449 63.565,23.363 59.526,23.363 L48.726,23.363 L48.732,1.087 L59.22,1.087 Z M58.96,13.442 L53.621,13.442 L53.622,19.56 L58.866,19.56 C60.803,19.56 62.48,18.946 62.48,16.631 C62.48,14.363 61.039,13.442 58.96,13.442 Z M12,4.84207372 C7.17402386,4.84207372 2.78291337,7.6314991 0.732,12 C2.78314544,16.3679221 7.17394915,19.1568614 11.9995,19.1568614 C16.8250508,19.1568614 21.2158546,16.3679221 23.267,12 L23.268,12 C21.2170866,7.6314991 16.8259761,4.84207372 12,4.84207372 Z M11.929,5.598 C15.4382173,5.598 18.283,8.4427827 18.283,11.952 C18.283,15.4612173 15.4382173,18.3060134 11.929,18.3060134 C10.2427559,18.3094606 8.62457969,17.6411346 7.43222255,16.4487775 C6.23986541,15.2564203 5.57153939,13.6382441 5.57498663,11.952 C5.57498663,8.4427827 8.4197827,5.598 11.929,5.598 Z M58.202,4.914 L53.619,4.914 L53.622,10.111 L58.58,10.111 C60.305,10.111 61.58,9.331 61.58,7.465 C61.58,5.339 59.95,4.914 58.202,4.914 Z" id="cbs" fill="#006887" fill-rule="nonzero"></path></svg>
