
<svg width="92px" height="24px" viewBox="0 0 92 24" version="1.1" xmlns="http://www.w3.org/2000/svg" xmlns:xlink="http://www.w3.org/1999/xlink">
        <path d="M68.026,7.353 C70.1207953,6.35347292 72.5429482,6.29706762 74.682,7.198 L74.682,7.198 C76.726,8.231 77.926,10.267 78.226,13.231 C78.2651927,13.5812545 78.2828925,13.933581 78.279,14.286 L78.279,14.286 L78.257,14.616 L73.377,14.633 L68.496,14.649 L68.515,15.226 C68.5321159,16.4570144 68.8264046,17.6683493 69.376,18.77 C69.6027479,19.2179736 69.9075119,19.6219553 70.276,19.963 C71.2441235,20.9941016 72.6239121,21.5362532 74.035,21.44 C75.0852908,21.4816007 76.1223155,21.193849 77.001,20.617 C77.1754865,20.4905328 77.3670711,20.3895216 77.57,20.317 C77.707,20.317 78.025,20.726 78.025,20.903 C78.025,21.193 77.079,22.131 76.156,22.754 C75.2406844,23.3262015 74.2244616,23.7182313 73.162,23.909 C72.1378106,24.0358943 71.1017726,24.0342146 70.078,23.904 C66.8367772,23.3445041 64.2900666,20.8201611 63.702,17.584 C63.5850172,16.9642983 63.5290829,16.3346188 63.535,15.704 C63.4574971,14.4847495 63.6178051,13.2620613 64.007,12.104 C64.6232314,10.0279365 66.0808202,8.30486991 68.026,7.353 Z M52.154,0 C52.2579281,1.27248603 52.2696253,2.55082524 52.189,3.825 C52.1788462,4.79607692 52.1727396,5.68556805 52.1709754,6.36192672 L52.1706695,6.96236914 C52.1716391,7.3954142 52.1756923,7.65 52.183,7.65 C52.202,7.65 52.448,7.543 52.73,7.413 C53.5998468,7.01628388 54.5449585,6.81164043 55.501,6.813 C56.0019333,6.77193106 56.5060686,6.79545737 57.001,6.883 L57.001,6.883 C59.543,7.407 61.423,9.487 62.08,12.498 C62.2658366,13.7276431 62.3064487,14.9748721 62.201,16.214 C62.0834239,17.1312123 61.8616585,18.0320293 61.54,18.899 C60.4612938,21.6431668 57.957948,23.5694089 55.029,23.909 C53.7286521,24.0198864 52.4215627,24.0275771 51.12,23.932 C50.468,23.866 48.468,23.533 47.768,23.374 L47.768,23.374 L47.285,23.264 L47.322,20.683 C47.413,14.473 47.425,11.083 47.366,7.783 C47.4350804,6.42970875 47.3680775,5.07290073 47.166,3.733 C47.0864392,3.26357321 46.8544913,2.83341524 46.506,2.509 C46.3049593,2.39733361 46.0881685,2.31675353 45.863,2.27 C45.04,2.085 45.085,2.115 45.063,1.74 C45.05,1.526 45.074,1.384 45.129,1.34 C45.203,1.282 51.939,0 52.154,0 Z M85.154,6.591 C86.9893316,6.47273143 88.8296131,6.72717331 90.564,7.339 L90.564,7.339 L90.802,7.439 L90.844,8.782 C90.868,9.52 90.892,10.51 90.898,10.982 L90.898,10.982 L90.909,11.839 L90.59,11.958 C90.086,12.146 90.053,12.122 89.772,11.378 C88.984,9.293 88.07,8.304 86.645,8.004 C85.8852026,7.78996572 85.0692948,8.01220637 84.523,8.582 C84.1304041,8.97675664 83.910633,9.51125724 83.912,10.068 C83.8252207,10.6438115 84.0179704,11.2265172 84.431,11.637 C85.345563,12.4570272 86.4211423,13.0772394 87.589,13.458 C89.727,14.352 90.748,15.111 91.303,16.22 L91.303,16.22 C91.6661751,16.9675937 91.8138934,17.7998091 91.726,18.624 C91.7473802,19.1547799 91.6651835,19.6846434 91.484,20.184 C90.8358708,22.0328655 89.251752,23.3963433 87.327,23.762 C86.5843386,23.9605054 85.8137261,24.0335107 85.047,23.978 C84.8084286,23.9805714 84.5726327,23.982 84.3541195,23.982379 L84.0411254,23.982172 C83.6459184,23.9808776 83.3488571,23.9755714 83.266,23.967 C82.018974,23.8277985 80.7897376,23.559699 79.598,23.167 L79.598,23.167 L79.298,23.036 L79.256,21.53 C79.232,20.701 79.206,19.593 79.197,19.067 L79.197,19.067 L79.18,18.111 L79.363,18.024 C79.5061293,17.9661383 79.6578434,17.932349 79.812,17.924 L79.812,17.924 L80.08,17.911 L80.307,18.472 C81.199,20.659 82.238,21.838 83.599,22.197 C84.2175467,22.3336129 84.8584533,22.3336129 85.477,22.197 C86.4953096,21.898165 87.1828295,20.9487132 87.149,19.888 C87.155,18.565 86.43,17.935 83.691,16.865 C82.5676078,16.5426365 81.5400948,15.9504347 80.698,15.14 C79.9382563,14.3652301 79.5100098,13.3251003 79.504,12.24 C79.3943119,10.8207298 79.9126358,9.42476454 80.922,8.421 C82.053115,7.30165614 83.5637008,6.64844916 85.154,6.591 Z M20.7,7.427 C23.3074863,6.1962683 26.3420737,6.26405754 28.892,7.61 C30.94,8.816 32.181,10.958 32.526,13.885 C32.6207129,15.0706646 32.5774239,16.2653053 32.397,17.443 C31.9033356,20.424163 29.7421412,22.8572081 26.84,23.699 C26.4859555,23.7985322 26.1263256,23.877003 25.763,23.934 C24.7743994,24.0168488 23.7806006,24.0168488 22.792,23.934 C21.2599628,23.7334379 19.8337627,23.0431374 18.726,21.966 C17.8343757,21.0830657 17.182226,19.9876606 16.831,18.783 C16.1666557,16.5721628 16.1666557,14.2148372 16.831,12.004 C17.4754222,10.03271 18.8635064,8.39061597 20.7,7.427 Z M7.32254027,0.405788958 C7.42428972,0.405879058 7.52665341,0.405977891 7.6295976,0.406085559 L8.25395891,0.406838415 C8.67448393,0.407412098 9.10321739,0.408130435 9.538,0.409 L9.538,0.409 L18.638,0.428 L18.681,0.692 C18.705,0.837 18.743,2.325 18.767,3.999 L18.767,3.999 L18.81,7.042 L18.341,7.185 C17.634,7.4 17.638,7.403 17.32,6.562 C16.539,4.498 15.644,3.307 14.42,2.707 C13.575,2.293 13.185,2.243 10.8,2.243 L10.8,2.243 L8.72,2.243 L8.686,2.59 C8.614,3.24 8.514,7.416 8.514,9.383 L8.514,11.345 L9.124,11.345 C9.46,11.343 10.121,11.318 10.594,11.29 C11.0115348,11.3048146 11.4274342,11.2304982 11.814,11.072 C12.6537467,10.5842526 13.2199443,9.73477148 13.347,8.772 L13.347,8.772 L13.504,8.146 L14.043,8.127 L14.581,8.108 L14.581,16.03 L14.042,16.011 L13.504,15.992 L13.351,15.365 C13.2143067,14.4041992 12.657281,13.554002 11.831,13.045 C10.9786294,12.8374479 10.101678,12.7486086 9.225,12.781 L9.225,12.781 L8.516,12.759 L8.516,14.242 C8.516,15.865 8.602,18.059 8.716,19.25 C8.876,20.911 9.3,21.828 10.062,22.16 C10.3954638,22.266779 10.7378367,22.3434197 11.085,22.389 C11.3801951,22.4255568 11.6723119,22.4837128 11.959,22.563 C12.12,22.642 12.129,23.503 11.97,23.563 C11.9144444,23.5861111 9.58451852,23.5981605 7.00241152,23.6002016 L5.37404371,23.6001837 C2.66632099,23.5980137 0.142092593,23.5852222 0.087,23.563 C0.032,23.54 0.004,23.372 0.004,23.072 C0.004,22.526 -0.031,22.554 1.026,22.354 C1.60443079,22.3301848 2.14092315,22.0455754 2.485,21.58 C3.179,20.67 3.331,18.918 3.331,11.702 C3.332,4.926 3.202,3.5 2.484,2.453 C2.05237485,1.92934076 1.40861249,1.62691192 0.73,1.629 L0.73,1.629 L0.038,1.546 L0.019,1.005 L0,0.465 L0.222,0.429 C0.285043478,0.418130435 1.5543724,0.410214556 3.50281799,0.406857627 L3.98321406,0.406140318 C4.06536328,0.406035629 4.1485316,0.40593844 4.2326853,0.405848853 Z M44.419,6.527 C45.328,6.527 46.237,6.82 46.237,7.12 C46.237,7.319 44.635,11.551 44.547,11.584 C44.3042374,11.5286452 44.0705696,11.4390838 43.853,11.318 C43.2281493,11.0001259 42.5389699,10.8291136 41.838,10.818 C41.0963603,10.7968505 40.3707202,11.0360181 39.787,11.494 C39.635,11.661 39.634,11.671 39.597,14.094 C39.56,16.494 39.64,19.417 39.775,20.594 C39.89,21.597 40.156,22.091 40.707,22.321 C41.2736259,22.4501154 41.8505204,22.529087 42.431,22.557 C42.4763337,22.7233673 42.4875587,22.8971837 42.464,23.068 L42.464,23.068 L42.445,23.579 L37.565,23.595 C37.2966,23.5959 37.03282,23.59661 36.77536,23.597121 L36.2693704,23.597875 C36.0210926,23.5981167 35.7802681,23.5981533 35.548597,23.597976 L35.097963,23.5973333 C33.6398889,23.5942222 32.639,23.5813333 32.599,23.556 C32.539,23.518 32.519,23.366 32.533,23.046 L32.533,23.046 L32.553,22.59 L32.784,22.541 C32.91,22.514 33.183,22.46 33.39,22.422 C33.9951157,22.3342777 34.4800451,21.8761554 34.602,21.277 C34.852986,19.3290658 34.9352917,17.3630962 34.848,15.401 C34.853,11.055 34.762,10.029 34.323,9.447 C34.085,9.132 33.913,9.043 33.335,8.932 C33.05,8.877 32.75,8.818 32.668,8.801 C32.536,8.773 32.519,8.721 32.519,8.407 C32.519,8.093 32.539,8.036 32.668,7.983 C32.865,7.902 39.398,6.596 39.607,6.596 L39.607,6.596 L39.77,6.596 L39.738,7.569 C39.72,8.1 39.692,8.883 39.675,9.3 L39.675,9.3 L39.645,10.058 L39.882,9.632 C40.4622178,8.43997557 41.4261283,7.47747381 42.619,6.899 C43.1786232,6.62717929 43.7975643,6.50029638 44.419,6.53 L44.419,6.53 Z M24.4161529,7.84733175 L24.246,7.848 C22.839,7.85 21.946,9.32 21.593,12.212 C21.4310483,14.0951912 21.4310483,15.9888088 21.593,17.872 C22.093,21.469 23.386,23.186 25.186,22.651 L25.186,22.651 C25.7700305,22.4031522 26.2485169,21.9540838 26.534,21.385 C27.169,20.172 27.453,18.379 27.459,15.531 C27.469,11.962 26.908,9.691 25.728,8.502 C25.3655462,8.06147316 24.8157248,7.81883941 24.246,7.848 Z M53.8245342,8.7340086 L53.66,8.743 C53.3112899,8.73676514 52.9634677,8.78020082 52.627,8.872 L52.627,8.872 L52.19,9 L52.158,11.406 C52.15226,11.83832 52.1493032,12.3616232 52.1486933,12.94257 L52.1487351,13.4538636 C52.1494307,14.065028 52.1523485,14.7243104 52.1570523,15.3983712 L52.1615113,15.9789792 C52.1875168,19.0865632 52.24824,22.30392 52.302,22.446 L52.302,22.446 C52.355,22.592 52.414,22.622 52.681,22.643 C53.0393733,22.6989086 53.4046888,22.69282 53.761,22.625 C54.2317542,22.5383929 54.6667336,22.3155138 55.012,21.984 C56.234597,20.5683528 56.9552722,18.7884608 57.062,16.921 C57.1801129,15.6368787 57.1703986,14.3442012 57.033,13.062 C56.671,10.945 55.894,9.553 54.76,8.992 C54.4302097,8.79148288 54.0439951,8.70405793 53.66,8.743 Z M71.264,7.859 C70.021,7.86 69.033,9.454 68.621,12.11 C68.5741038,12.394724 68.543056,12.6818328 68.528,12.97 L68.528,12.97 L68.528,13.237 L69.765,13.217 C70.447,13.206 71.516,13.179 72.147,13.157 L72.147,13.157 L73.294,13.117 L73.253,12.302 C73.108,9.428 72.405,7.859 71.264,7.859 Z" fill="#006887"></path>
</svg>
