<svg xmlns="http://www.w3.org/2000/svg" xmlns:xlink="http://www.w3.org/1999/xlink" width="69.46" height="24" viewBox="0 0 69.46 24"><defs><clipPath id="a"><rect width="69.46" height="24" fill="none"/></clipPath></defs><g clip-path="url(#a)"><g transform="translate(-627.557 -564.271)"><path d="M2.2-36.8v5.529H5.287V-18.38H2.2v5.14H18.6v-5.14H15.512V-31.272H18.6V-36.8H2.2m17.255,8.1v2.57h2.306v7.752H19.458v5.14H32.267v-5.14H29.819l.011-2.481a22.032,22.032,0,0,1,.056-2.667,3.192,3.192,0,0,1,2.553-2.509,4.727,4.727,0,0,1,1.467.008,2.178,2.178,0,0,1,1.787,1.578l.061.222.017,5.849H33.378v5.14H45.91v-5.043l.2.375a8.934,8.934,0,0,0,4.61,4.021,15.534,15.534,0,0,0,6.53,1.07,15.578,15.578,0,0,0,2.653-.3,7.908,7.908,0,0,0,5.432-3.5,7.749,7.749,0,0,0,1.056-3.193v-.075H59.5v.161a3.247,3.247,0,0,1-.169.906,2.545,2.545,0,0,1-1.884,1.62,5,5,0,0,1-1.453.067,2.95,2.95,0,0,1-1.331-.5,3.1,3.1,0,0,1-.572-.589,4.508,4.508,0,0,1-.631-1.917,17.261,17.261,0,0,1,.067-4.126,4.526,4.526,0,0,1,.4-1.2,2.476,2.476,0,0,1,1.748-1.311,2.928,2.928,0,0,1,.853-.072,2.566,2.566,0,0,1,.792.061c1.273.328,1.881,1.35,2.048,3.437.017.228.033.42.039.425s.77-.075,5.215-.564l1.664-.181a6.214,6.214,0,0,0-.228-1.417C65.32-28,63.159-30,59.858-30.8a13.59,13.59,0,0,0-3.959-.339,15.267,15.267,0,0,0-3.334.467c-3.223.814-5.577,2.609-6.668,5.079a9.381,9.381,0,0,0-.625,5.029,9.488,9.488,0,0,0,.55,2.034l.061.147H43.826v-3.579a31.5,31.5,0,0,0-.1-4.479,5.129,5.129,0,0,0-4-4.276,10.021,10.021,0,0,0-2.437-.361,9.1,9.1,0,0,0-5.346,1.2,7.73,7.73,0,0,0-1.623,1.353l-.561.6-.189.2v-3.543H19.458Zm48.735,9.755a2.891,2.891,0,0,0-1.464.77,2.859,2.859,0,0,0-.889,2.239,2.924,2.924,0,0,0,2.4,2.729,3.979,3.979,0,0,0,1.028,0,2.935,2.935,0,0,0,2.092-1.573,2.9,2.9,0,0,0-.586-3.4,2.874,2.874,0,0,0-1.478-.772A3.823,3.823,0,0,0,68.193-18.947Z" transform="translate(625.354 601.073)" fill="#006887" fill-rule="evenodd"/></g></g></svg>