<?xml version="1.0" encoding="UTF-8"?>
<svg width="215px" height="32px" viewBox="0 0 215 32" version="1.1" xmlns="http://www.w3.org/2000/svg" xmlns:xlink="http://www.w3.org/1999/xlink">
    <title>reviews-light-background</title>
    <g id="Page-1" stroke="none" stroke-width="1" fill="none" fill-rule="evenodd">
        <g id="reviews-light-background" transform="translate(-0.000000, 0.000000)" fill-rule="nonzero">
            <path d="M178.663413,6.99288989 C179.046735,6.99288989 179.396326,7.21200967 179.563413,7.557 L179.563413,7.557 L181.599413,11.693 L186.163413,12.358 C186.539417,12.4136235 186.85138,12.677604 186.968454,13.0392209 C187.085529,13.4008378 186.987473,13.7975633 186.715413,14.063 L186.715413,14.063 L183.415413,17.281 L184.196413,21.827 C184.259959,22.2016986 184.105613,22.5800322 183.798098,22.8033518 C183.490583,23.0266713 183.083058,23.0563723 182.746413,22.88 L182.746413,22.88 L178.663413,20.734 L174.579413,22.881 C174.242768,23.0573723 173.835242,23.0276713 173.527727,22.8043518 C173.220212,22.5810322 173.065867,22.2026986 173.129413,21.828 L173.129413,21.828 L173.910413,17.282 L170.610413,14.064 C170.337704,13.7984951 170.239359,13.4012004 170.356721,13.0391384 C170.474084,12.6770764 170.786803,12.4130284 171.163413,12.358 L171.163413,12.358 L175.725413,11.693 L177.763413,7.557 C177.930499,7.21200967 178.28009,6.99288989 178.663413,6.99288989 Z M206.485449,6.99288989 C206.868772,6.99288989 207.218363,7.21200967 207.385449,7.557 L207.385449,7.557 L209.421449,11.693 L213.985449,12.358 C214.361454,12.4136235 214.673416,12.677604 214.790491,13.0392209 C214.907565,13.4008378 214.809509,13.7975633 214.537449,14.063 L214.537449,14.063 L211.237449,17.281 L212.018449,21.827 C212.081995,22.2016986 211.92765,22.5800322 211.620135,22.8033518 C211.31262,23.0266713 210.905094,23.0563723 210.568449,22.88 L210.568449,22.88 L206.485449,20.734 L202.401449,22.881 C202.064804,23.0573723 201.657279,23.0276713 201.349764,22.8043518 C201.042249,22.5810322 200.887903,22.2026986 200.951449,21.828 L200.951449,21.828 L201.732449,17.282 L198.432449,14.064 C198.159741,13.7984951 198.061395,13.4012004 198.178758,13.0391384 C198.29612,12.6770764 198.60884,12.4130284 198.985449,12.358 L198.985449,12.358 L203.547449,11.693 L205.585449,7.557 C205.752536,7.21200967 206.102127,6.99288989 206.485449,6.99288989 Z M150.844275,6.99288989 C151.227598,6.99288989 151.577189,7.21200967 151.744275,7.557 L151.744275,7.557 L153.780275,11.693 L158.344275,12.358 C158.72028,12.4136235 159.032242,12.677604 159.149317,13.0392209 C159.266392,13.4008378 159.168335,13.7975633 158.896275,14.063 L158.896275,14.063 L155.596275,17.281 L156.377275,21.827 C156.440822,22.2016986 156.286476,22.5800322 155.978961,22.8033518 C155.671446,23.0266713 155.26392,23.0563723 154.927275,22.88 L154.927275,22.88 L150.844275,20.734 L146.760275,22.881 C146.42363,23.0573723 146.016105,23.0276713 145.70859,22.8043518 C145.401075,22.5810322 145.246729,22.2026986 145.310275,21.828 L145.310275,21.828 L146.091275,17.282 L142.791275,14.064 C142.518567,13.7984951 142.420221,13.4012004 142.537584,13.0391384 C142.654946,12.6770764 142.967666,12.4130284 143.344275,12.358 L143.344275,12.358 L147.906275,11.693 L149.944275,7.557 C150.111362,7.21200967 150.460953,6.99288989 150.844275,6.99288989 Z M123.025138,6.99288989 C123.40846,6.99288989 123.758051,7.21200967 123.925138,7.557 L123.925138,7.557 L125.961138,11.693 L130.525138,12.358 C130.901142,12.4136235 131.213104,12.677604 131.330179,13.0392209 C131.447254,13.4008378 131.349198,13.7975633 131.077138,14.063 L131.077138,14.063 L127.777138,17.281 L128.558138,21.827 C128.621684,22.2016986 128.467338,22.5800322 128.159823,22.8033518 C127.852308,23.0266713 127.444783,23.0563723 127.108138,22.88 L127.108138,22.88 L123.025138,20.734 L118.941138,22.881 C118.604492,23.0573723 118.196967,23.0276713 117.889452,22.8043518 C117.581937,22.5810322 117.427591,22.2026986 117.491138,21.828 L117.491138,21.828 L118.272138,17.282 L114.972138,14.064 C114.699429,13.7984951 114.601084,13.4012004 114.718446,13.0391384 C114.835809,12.6770764 115.148528,12.4130284 115.525138,12.358 L115.525138,12.358 L120.087138,11.693 L122.125138,7.557 C122.292224,7.21200967 122.641815,6.99288989 123.025138,6.99288989 Z M95.206,6.99288989 C95.5893226,6.99288989 95.9389136,7.21200967 96.106,7.557 L96.106,7.557 L98.142,11.693 L102.706,12.358 C103.082004,12.4136235 103.393967,12.677604 103.511042,13.0392209 C103.628116,13.4008378 103.53006,13.7975633 103.258,14.063 L103.258,14.063 L99.958,17.281 L100.739,21.827 C100.802546,22.2016986 100.648201,22.5800322 100.340685,22.8033518 C100.03317,23.0266713 99.6256451,23.0563723 99.289,22.88 L99.289,22.88 L95.206,20.734 L91.122,22.881 C90.7853549,23.0573723 90.3778296,23.0276713 90.0703146,22.8043518 C89.7627995,22.5810322 89.6084537,22.2026986 89.672,21.828 L89.672,21.828 L90.453,17.282 L87.153,14.064 C86.8802914,13.7984951 86.7819461,13.4012004 86.8993086,13.0391384 C87.016671,12.6770764 87.3293905,12.4130284 87.706,12.358 L87.706,12.358 L92.268,11.693 L94.306,7.557 C94.4730864,7.21200967 94.8226774,6.99288989 95.206,6.99288989 Z" id="Stars" fill="#F89B3A"></path>
            <path d="M52.279,18.523 L52.279,16.459 L57.303,9.467 L60.583,9.467 L55.703,16.459 L54.203,16.011 L62.951,16.011 L62.951,18.523 L52.279,18.523 Z M58.199,20.667 L58.199,18.523 L58.299,16.011 L58.299,14.111 L61.287,14.111 L61.287,20.671 L58.199,20.667 Z M66.007,20.811 C65.5222213,20.8233673 65.0531481,20.6386246 64.707,20.299 C64.3551763,19.9597667 64.1633559,19.4874817 64.179,18.999 C64.1582952,18.509627 64.3509273,18.0353433 64.707,17.699 C65.0599106,17.3726987 65.526545,17.1975314 66.007,17.211 C66.487455,17.1975314 66.9540894,17.3726987 67.307,17.699 C67.6630727,18.0353433 67.8557048,18.509627 67.835,18.999 C67.8506441,19.4874817 67.6588237,19.9597667 67.307,20.299 C66.9608519,20.6386246 66.4917787,20.8233673 66.007,20.811 L66.007,20.811 Z M73.307,9.243 C74.2593964,9.21886871 75.2026986,9.43338058 76.051,9.867 C76.8269469,10.2856366 77.4574407,10.9300794 77.859,11.715 C78.3204027,12.6629286 78.5428706,13.7093519 78.507,14.763 C78.5418429,15.9164588 78.2801674,17.0595677 77.747,18.083 C77.2658571,18.9690915 76.5358342,19.6949428 75.647,20.171 C74.6862772,20.6676785 73.6162447,20.9152438 72.535,20.891 C71.9312327,20.8940938 71.3293783,20.8228923 70.743,20.679 C70.2192318,20.5562822 69.7173931,20.3539279 69.255,20.079 L70.407,17.807 C70.7077054,18.0222428 71.0473126,18.1771037 71.407,18.263 C71.7561156,18.3419179 72.1130805,18.3808351 72.471,18.379 C73.2368064,18.4154593 73.9832104,18.1313909 74.531,17.595 C75.0816786,16.965155 75.3581373,16.1415385 75.299,15.307 L75.299,14.739 C75.2987114,14.5380527 75.2826622,14.3374375 75.251,14.139 L76.035,14.795 C75.855072,15.1737729 75.5990922,15.5114484 75.283,15.787 C74.9638229,16.0592112 74.5941052,16.2658181 74.195,16.395 C73.7345651,16.5402756 73.2537514,16.6105068 72.771,16.603 C72.1025463,16.6111884 71.4417189,16.4603772 70.843,16.163 C70.2762199,15.8824331 69.7933513,15.4575087 69.443,14.931 C69.0833905,14.3769765 68.8993663,13.7273155 68.915,13.067 C68.8975191,12.3472473 69.1044149,11.6398875 69.507,11.043 C69.9075475,10.4673834 70.4543267,10.0089726 71.091,9.715 C71.7834284,9.39323978 72.5395451,9.23189841 73.303,9.243 L73.307,9.243 Z M73.515,11.499 C73.2432213,11.4928236 72.97406,11.5532476 72.731,11.675 C72.5123443,11.7874367 72.3273977,11.9558209 72.195,12.163 C72.0560307,12.3915728 71.9865418,12.6556305 71.995,12.923 C71.9784258,13.3101555 72.1335876,13.6848858 72.419,13.947 C72.7270938,14.2121941 73.1249152,14.3495713 73.531,14.331 C73.8130336,14.3370864 74.0925495,14.2767986 74.347,14.155 C74.5731402,14.0448434 74.7622062,13.8710695 74.891,13.655 C75.022907,13.4267473 75.0893404,13.1665499 75.083,12.903 C75.0887291,12.6471069 75.0221826,12.3947845 74.891,12.175 C74.7591213,11.9614583 74.570881,11.7884433 74.347,11.675 C74.0868446,11.5490685 73.7998467,11.4886479 73.511,11.499 L73.515,11.499 Z" id="Text" fill="#006887"></path>
            <g id="Icon">
                <path d="M32.46,8.133 L32.46,17.093 C32.4583499,20.6037719 29.614768,23.4504855 26.104,23.456 L18.088,23.456 C18.5595492,25.3143767 20.2297382,26.6175274 22.147,26.623 L25.453,26.623 L30.617,31.787 C30.755318,31.9232764 30.9418276,31.9994614 31.136,31.9991942 C31.2320125,32.0014195 31.3272466,31.9812079 31.414,31.94 C31.6866938,31.8272919 31.8652212,31.5620624 31.867,31.267 L31.867,26.622 L32.386,26.622 C34.6985718,26.6170498 36.5720498,24.7435718 36.577,22.431 L36.577,12.317 C36.5687543,10.0356601 34.7409096,8.17806902 32.46,8.133 Z" id="Path" fill="#006887"></path>
                <path d="M26.1,0 L4.893,0 C2.1895388,0.00386209137 0,2.19653604 0,4.9 L0,17.093 C0,19.796464 2.1895388,21.9891379 4.893,21.993 L5.676,21.993 L5.676,27.742 C5.68242625,28.1430282 6.00597185,28.4665738 6.407,28.4730138 C6.60270271,28.4742136 6.79032491,28.3950436 6.926,28.254 L13.194,21.993 L26.1,21.993 C28.8034612,21.9891379 30.993,19.796464 30.993,17.093 L30.993,4.9 C30.993,2.19653604 28.8034612,0.00386209137 26.1,0 L26.1,0 Z M6.89,13.8600002 C5.30659962,13.8600002 4.023,12.5764004 4.023,10.993 C4.023,9.40959962 5.30659962,8.126 6.89,8.126 C8.47340038,8.126 9.75700017,9.40959962 9.75700017,10.993 C9.75726538,11.753457 9.45529255,12.4828439 8.91756821,13.0205682 C8.37984387,13.5582925 7.650457,13.8602654 6.89,13.8600002 Z M15.499,13.86 C13.9155996,13.86 12.632,12.5764004 12.632,10.993 C12.632,9.40959962 13.9155996,8.126 15.499,8.126 C17.0824004,8.126 18.366,9.40959962 18.366,10.993 C18.3632495,12.5748695 17.0818684,13.8566976 15.5,13.86 L15.499,13.86 Z M24.108,13.8600086 C22.9477739,13.8628328 21.9002153,13.1661096 21.4542517,12.0950124 C21.0082882,11.0239153 21.2518457,9.78962113 22.0712485,8.96821282 C22.8906513,8.1468045 24.1243464,7.90023043 25.1965305,8.34357427 C26.2687146,8.78691812 26.968,9.83277048 26.968,10.993 C26.9652639,12.572536 25.6875246,13.8534026 24.108,13.8600086 L24.108,13.8600086 Z" id="Shape" fill="#008EB9"></path>
            </g>
        </g>
    </g>
</svg>